<svg xmlns="http://www.w3.org/2000/svg" xmlns:xlink="http://www.w3.org/1999/xlink" width="500" zoomAndPan="magnify" viewBox="0 0 375 374.999991" height="500" preserveAspectRatio="xMidYMid meet" version="1.0"><defs><g/><clipPath id="6f16b7d6e0"><path d="M 71.902344 37.5 L 302.902344 37.5 L 302.902344 204.75 L 71.902344 204.75 Z M 71.902344 37.5 " clip-rule="nonzero"/></clipPath><clipPath id="df43d06241"><rect x="0" width="176" y="0" height="147"/></clipPath></defs><g clip-path="url(#6f16b7d6e0)"><path fill="#000000" d="M 115.691406 43.820312 C 110.792969 43.820312 106.8125 47.78125 106.8125 52.675781 L 106.8125 149.617188 L 79.824219 181.773438 C 78.777344 183.027344 78.191406 184.617188 78.191406 186.246094 L 78.191406 190.171875 C 78.191406 194.730469 81.910156 198.429688 86.476562 198.429688 L 288.011719 198.429688 C 292.578125 198.429688 296.296875 194.730469 296.296875 190.171875 L 296.296875 186.246094 C 296.296875 184.617188 295.710938 183.027344 294.667969 181.761719 L 267.675781 149.617188 L 267.675781 52.675781 C 267.675781 47.78125 263.699219 43.820312 258.796875 43.820312 Z M 288.011719 204.789062 L 86.476562 204.789062 C 78.40625 204.789062 71.824219 198.230469 71.824219 190.171875 L 71.824219 186.246094 C 71.824219 183.128906 72.933594 180.085938 74.945312 177.6875 L 100.445312 147.296875 L 100.445312 52.675781 C 100.445312 44.277344 107.285156 37.460938 115.691406 37.460938 L 258.796875 37.460938 C 267.203125 37.460938 274.046875 44.277344 274.046875 52.675781 L 274.046875 147.296875 L 299.542969 177.675781 C 301.558594 180.085938 302.664062 183.128906 302.664062 186.246094 L 302.664062 190.171875 C 302.664062 198.230469 296.085938 204.789062 288.011719 204.789062 " fill-opacity="1" fill-rule="nonzero"/></g><path fill="#000000" d="M 270.859375 151.628906 L 103.628906 151.628906 L 103.628906 145.269531 L 270.859375 145.269531 L 270.859375 151.628906 " fill-opacity="1" fill-rule="nonzero"/><path fill="#000000" d="M 299.480469 185.738281 L 210.117188 185.738281 L 210.117188 179.378906 L 299.480469 179.378906 L 299.480469 185.738281 " fill-opacity="1" fill-rule="nonzero"/><path fill="#000000" d="M 164.371094 185.738281 L 75.007812 185.738281 L 75.007812 179.378906 L 164.371094 179.378906 L 164.371094 185.738281 " fill-opacity="1" fill-rule="nonzero"/><path fill="#000000" d="M 270.859375 61.035156 L 103.628906 61.035156 L 103.628906 54.675781 L 270.859375 54.675781 L 270.859375 61.035156 " fill-opacity="1" fill-rule="nonzero"/><path fill="#000000" d="M 166.152344 172.695312 L 165.816406 173.105469 L 168.476562 187.128906 C 168.515625 187.277344 168.652344 187.402344 168.824219 187.402344 L 205.664062 187.402344 C 205.839844 187.402344 205.976562 187.277344 206.011719 187.128906 L 208.675781 173.105469 L 208.339844 172.695312 Z M 205.664062 193.761719 L 168.824219 193.761719 C 165.601562 193.761719 162.828125 191.460938 162.234375 188.320312 L 159.558594 174.296875 C 159.171875 172.335938 159.695312 170.308594 160.976562 168.769531 C 162.257812 167.230469 164.136719 166.335938 166.152344 166.335938 L 208.339844 166.335938 C 210.351562 166.335938 212.230469 167.230469 213.511719 168.769531 C 214.792969 170.308594 215.316406 172.335938 214.929688 174.296875 L 212.257812 188.308594 C 211.660156 191.460938 208.886719 193.761719 205.664062 193.761719 " fill-opacity="1" fill-rule="nonzero"/><path fill="#000000" d="M 151.460938 102.183594 L 151.472656 102.183594 C 151.472656 102.183594 151.472656 102.183594 151.460938 102.183594 Z M 166.699219 126.117188 C 165.851562 126.117188 165.019531 125.78125 164.382812 125.125 L 146.835938 106.554688 C 145.042969 104.65625 145.042969 101.6875 146.835938 99.785156 L 164.382812 81.21875 C 165.601562 79.9375 167.605469 79.875 168.886719 81.082031 C 170.167969 82.285156 170.230469 84.296875 169.023438 85.578125 L 152.394531 103.164062 L 169.023438 120.753906 C 170.230469 122.03125 170.167969 124.042969 168.886719 125.25 C 168.277344 125.832031 167.480469 126.117188 166.699219 126.117188 " fill-opacity="1" fill-rule="nonzero"/><path fill="#000000" d="M 223.015625 102.183594 Z M 223.015625 104.144531 L 223.050781 104.144531 Z M 207.792969 126.117188 C 207.007812 126.117188 206.210938 125.832031 205.601562 125.25 C 204.320312 124.042969 204.257812 122.03125 205.464844 120.753906 L 222.09375 103.164062 L 205.464844 85.578125 C 204.257812 84.296875 204.320312 82.285156 205.601562 81.082031 C 206.882812 79.875 208.886719 79.9375 210.105469 81.21875 L 227.652344 99.773438 C 229.445312 101.6875 229.445312 104.65625 227.640625 106.554688 L 210.105469 125.125 C 209.46875 125.78125 208.636719 126.117188 207.792969 126.117188 " fill-opacity="1" fill-rule="nonzero"/><path fill="#000000" d="M 180.949219 132.191406 C 180.703125 132.191406 180.441406 132.167969 180.191406 132.105469 C 178.476562 131.683594 177.429688 129.96875 177.839844 128.253906 L 190.453125 76.574219 C 190.863281 74.859375 192.605469 73.816406 194.296875 74.238281 C 196.011719 74.648438 197.058594 76.363281 196.648438 78.074219 L 184.035156 129.769531 C 183.6875 131.210938 182.382812 132.191406 180.949219 132.191406 " fill-opacity="1" fill-rule="nonzero"/><g transform="matrix(1, 0, 0, 1, 104, 197)"><g clip-path="url(#df43d06241)"><g fill="#000000" fill-opacity="1"><g transform="translate(1.624097, 52.553936)"><g><path d="M 28.625 -4.78125 C 28.625 -4.78125 28.394531 -4.507812 27.9375 -3.96875 C 27.488281 -3.425781 26.773438 -2.800781 25.796875 -2.09375 C 24.816406 -1.394531 23.550781 -0.773438 22 -0.234375 C 20.445312 0.304688 18.570312 0.578125 16.375 0.578125 C 13.15625 0.578125 10.484375 -0.078125 8.359375 -1.390625 C 6.242188 -2.710938 4.664062 -4.476562 3.625 -6.6875 C 2.582031 -8.90625 2.0625 -11.375 2.0625 -14.09375 C 2.0625 -16.8125 2.582031 -19.28125 3.625 -21.5 C 4.664062 -23.726562 6.242188 -25.5 8.359375 -26.8125 C 10.484375 -28.132812 13.15625 -28.796875 16.375 -28.796875 C 18.425781 -28.796875 20.175781 -28.523438 21.625 -27.984375 C 23.070312 -27.441406 24.253906 -26.8125 25.171875 -26.09375 C 26.097656 -25.382812 26.773438 -24.757812 27.203125 -24.21875 C 27.628906 -23.675781 27.84375 -23.40625 27.84375 -23.40625 L 27.84375 -18.875 L 23.484375 -18.875 L 22.875 -22.53125 C 22.175781 -22.96875 21.328125 -23.351562 20.328125 -23.6875 C 19.328125 -24.019531 18.171875 -24.1875 16.859375 -24.1875 C 14.835938 -24.1875 13.160156 -23.734375 11.828125 -22.828125 C 10.492188 -21.921875 9.503906 -20.707031 8.859375 -19.1875 C 8.222656 -17.664062 7.90625 -15.96875 7.90625 -14.09375 C 7.90625 -12.25 8.25 -10.554688 8.9375 -9.015625 C 9.625 -7.484375 10.671875 -6.253906 12.078125 -5.328125 C 13.484375 -4.410156 15.238281 -3.953125 17.34375 -3.953125 C 18.832031 -3.953125 20.144531 -4.175781 21.28125 -4.625 C 22.425781 -5.082031 23.382812 -5.601562 24.15625 -6.1875 C 24.9375 -6.769531 25.523438 -7.289062 25.921875 -7.75 C 26.316406 -8.207031 26.515625 -8.4375 26.515625 -8.4375 Z M 28.625 -4.78125 "/></g></g></g><g fill="#000000" fill-opacity="1"><g transform="translate(40.913737, 52.553936)"><g><path d="M 1.265625 -28.140625 L 11.109375 -28.140625 L 11.109375 -23.625 L 9.125 -23.625 L 9.125 -4.609375 L 19.0625 -4.609375 L 19.3125 -6.8125 L 23.40625 -6.8125 L 23.40625 0 L 1.265625 0 L 1.265625 -4.609375 L 3.25 -4.609375 L 3.25 -23.625 L 1.265625 -23.625 Z M 1.265625 -28.140625 "/></g></g></g><g fill="#000000" fill-opacity="1"><g transform="translate(74.540685, 52.553936)"><g><path d="M 1.265625 -28.1875 L 11.109375 -28.140625 L 11.109375 -23.578125 L 9.125 -23.625 L 9.125 -4.609375 L 11.109375 -4.609375 L 11.109375 0 L 1.265625 0 L 1.265625 -4.609375 L 3.25 -4.609375 L 3.25 -23.625 L 1.265625 -23.625 Z M 1.265625 -28.1875 "/></g></g></g><g fill="#000000" fill-opacity="1"><g transform="translate(96.3155, 52.553936)"><g><path d="M 28.625 -4.78125 C 28.625 -4.78125 28.394531 -4.507812 27.9375 -3.96875 C 27.488281 -3.425781 26.773438 -2.800781 25.796875 -2.09375 C 24.816406 -1.394531 23.550781 -0.773438 22 -0.234375 C 20.445312 0.304688 18.570312 0.578125 16.375 0.578125 C 13.15625 0.578125 10.484375 -0.078125 8.359375 -1.390625 C 6.242188 -2.710938 4.664062 -4.476562 3.625 -6.6875 C 2.582031 -8.90625 2.0625 -11.375 2.0625 -14.09375 C 2.0625 -16.8125 2.582031 -19.28125 3.625 -21.5 C 4.664062 -23.726562 6.242188 -25.5 8.359375 -26.8125 C 10.484375 -28.132812 13.15625 -28.796875 16.375 -28.796875 C 18.425781 -28.796875 20.175781 -28.523438 21.625 -27.984375 C 23.070312 -27.441406 24.253906 -26.8125 25.171875 -26.09375 C 26.097656 -25.382812 26.773438 -24.757812 27.203125 -24.21875 C 27.628906 -23.675781 27.84375 -23.40625 27.84375 -23.40625 L 27.84375 -18.875 L 23.484375 -18.875 L 22.875 -22.53125 C 22.175781 -22.96875 21.328125 -23.351562 20.328125 -23.6875 C 19.328125 -24.019531 18.171875 -24.1875 16.859375 -24.1875 C 14.835938 -24.1875 13.160156 -23.734375 11.828125 -22.828125 C 10.492188 -21.921875 9.503906 -20.707031 8.859375 -19.1875 C 8.222656 -17.664062 7.90625 -15.96875 7.90625 -14.09375 C 7.90625 -12.25 8.25 -10.554688 8.9375 -9.015625 C 9.625 -7.484375 10.671875 -6.253906 12.078125 -5.328125 C 13.484375 -4.410156 15.238281 -3.953125 17.34375 -3.953125 C 18.832031 -3.953125 20.144531 -4.175781 21.28125 -4.625 C 22.425781 -5.082031 23.382812 -5.601562 24.15625 -6.1875 C 24.9375 -6.769531 25.523438 -7.289062 25.921875 -7.75 C 26.316406 -8.207031 26.515625 -8.4375 26.515625 -8.4375 Z M 28.625 -4.78125 "/></g></g></g><g fill="#000000" fill-opacity="1"><g transform="translate(135.605141, 52.553936)"><g><path d="M 18.21875 -28.140625 L 29.15625 -28.140625 L 29.15625 -23.625 L 27.09375 -23.625 L 18.046875 -16.109375 L 27.140625 -4.5625 L 29.28125 -4.5625 L 29.28125 0 L 23.625 0 L 13.78125 -12.5625 L 9 -8.5625 L 9 -4.609375 L 10.96875 -4.609375 L 10.96875 0 L 1.140625 0 L 1.140625 -4.609375 L 3.125 -4.609375 L 3.125 -23.625 L 1.140625 -23.625 L 1.140625 -28.1875 L 10.96875 -28.140625 L 10.96875 -23.578125 L 9 -23.625 L 9 -14.140625 L 20.234375 -23.625 L 18.21875 -23.625 Z M 18.21875 -28.140625 "/></g></g></g><g fill="#000000" fill-opacity="1"><g transform="translate(10.09182, 113.709712)"><g><path d="M 28.625 -4.78125 C 28.625 -4.78125 28.394531 -4.507812 27.9375 -3.96875 C 27.488281 -3.425781 26.773438 -2.800781 25.796875 -2.09375 C 24.816406 -1.394531 23.550781 -0.773438 22 -0.234375 C 20.445312 0.304688 18.570312 0.578125 16.375 0.578125 C 13.15625 0.578125 10.484375 -0.078125 8.359375 -1.390625 C 6.242188 -2.710938 4.664062 -4.476562 3.625 -6.6875 C 2.582031 -8.90625 2.0625 -11.375 2.0625 -14.09375 C 2.0625 -16.8125 2.582031 -19.28125 3.625 -21.5 C 4.664062 -23.726562 6.242188 -25.5 8.359375 -26.8125 C 10.484375 -28.132812 13.15625 -28.796875 16.375 -28.796875 C 18.425781 -28.796875 20.175781 -28.523438 21.625 -27.984375 C 23.070312 -27.441406 24.253906 -26.8125 25.171875 -26.09375 C 26.097656 -25.382812 26.773438 -24.757812 27.203125 -24.21875 C 27.628906 -23.675781 27.84375 -23.40625 27.84375 -23.40625 L 27.84375 -18.875 L 23.484375 -18.875 L 22.875 -22.53125 C 22.175781 -22.96875 21.328125 -23.351562 20.328125 -23.6875 C 19.328125 -24.019531 18.171875 -24.1875 16.859375 -24.1875 C 14.835938 -24.1875 13.160156 -23.734375 11.828125 -22.828125 C 10.492188 -21.921875 9.503906 -20.707031 8.859375 -19.1875 C 8.222656 -17.664062 7.90625 -15.96875 7.90625 -14.09375 C 7.90625 -12.25 8.25 -10.554688 8.9375 -9.015625 C 9.625 -7.484375 10.671875 -6.253906 12.078125 -5.328125 C 13.484375 -4.410156 15.238281 -3.953125 17.34375 -3.953125 C 18.832031 -3.953125 20.144531 -4.175781 21.28125 -4.625 C 22.425781 -5.082031 23.382812 -5.601562 24.15625 -6.1875 C 24.9375 -6.769531 25.523438 -7.289062 25.921875 -7.75 C 26.316406 -8.207031 26.515625 -8.4375 26.515625 -8.4375 Z M 28.625 -4.78125 "/></g></g></g><g fill="#000000" fill-opacity="1"><g transform="translate(49.38146, 113.709712)"><g><path d="M 16.328125 -24.1875 C 14.304688 -24.1875 12.675781 -23.734375 11.4375 -22.828125 C 10.195312 -21.921875 9.289062 -20.707031 8.71875 -19.1875 C 8.144531 -17.664062 7.859375 -15.96875 7.859375 -14.09375 C 7.859375 -12.25 8.144531 -10.554688 8.71875 -9.015625 C 9.289062 -7.484375 10.195312 -6.253906 11.4375 -5.328125 C 12.675781 -4.410156 14.304688 -3.953125 16.328125 -3.953125 C 18.347656 -3.953125 19.976562 -4.410156 21.21875 -5.328125 C 22.46875 -6.253906 23.367188 -7.484375 23.921875 -9.015625 C 24.484375 -10.554688 24.765625 -12.25 24.765625 -14.09375 C 24.765625 -15.96875 24.484375 -17.664062 23.921875 -19.1875 C 23.367188 -20.707031 22.46875 -21.921875 21.21875 -22.828125 C 19.976562 -23.734375 18.347656 -24.1875 16.328125 -24.1875 Z M 16.328125 -28.796875 C 19.578125 -28.796875 22.253906 -28.132812 24.359375 -26.8125 C 26.472656 -25.5 28.046875 -23.726562 29.078125 -21.5 C 30.117188 -19.28125 30.640625 -16.8125 30.640625 -14.09375 C 30.640625 -11.375 30.117188 -8.90625 29.078125 -6.6875 C 28.046875 -4.476562 26.472656 -2.710938 24.359375 -1.390625 C 22.253906 -0.078125 19.578125 0.578125 16.328125 0.578125 C 13.109375 0.578125 10.4375 -0.078125 8.3125 -1.390625 C 6.195312 -2.710938 4.617188 -4.476562 3.578125 -6.6875 C 2.535156 -8.90625 2.015625 -11.375 2.015625 -14.09375 C 2.015625 -16.8125 2.535156 -19.28125 3.578125 -21.5 C 4.617188 -23.726562 6.195312 -25.5 8.3125 -26.8125 C 10.4375 -28.132812 13.109375 -28.796875 16.328125 -28.796875 Z M 16.328125 -28.796875 "/></g></g></g><g fill="#000000" fill-opacity="1"><g transform="translate(91.480495, 113.709712)"><g><path d="M 15.765625 -23.625 L 9.125 -23.625 L 9.125 -4.609375 L 15.765625 -4.609375 C 17.722656 -4.609375 19.300781 -5.03125 20.5 -5.875 C 21.695312 -6.726562 22.570312 -7.867188 23.125 -9.296875 C 23.6875 -10.734375 23.96875 -12.332031 23.96875 -14.09375 C 23.96875 -15.851562 23.6875 -17.445312 23.125 -18.875 C 22.570312 -20.3125 21.695312 -21.460938 20.5 -22.328125 C 19.300781 -23.191406 17.722656 -23.625 15.765625 -23.625 Z M 1.265625 -28.140625 L 16.515625 -28.140625 C 19.523438 -28.140625 22.007812 -27.507812 23.96875 -26.25 C 25.9375 -25 27.398438 -23.3125 28.359375 -21.1875 C 29.328125 -19.0625 29.8125 -16.695312 29.8125 -14.09375 C 29.8125 -11.519531 29.328125 -9.160156 28.359375 -7.015625 C 27.398438 -4.878906 25.9375 -3.175781 23.96875 -1.90625 C 22.007812 -0.632812 19.523438 0 16.515625 0 L 1.265625 0 L 1.265625 -4.609375 L 3.25 -4.609375 L 3.25 -23.625 L 1.265625 -23.625 Z M 1.265625 -28.140625 "/></g></g></g><g fill="#000000" fill-opacity="1"><g transform="translate(132.745483, 113.709712)"><g><path d="M 1.265625 -28.140625 L 23.40625 -28.140625 L 23.40625 -21.375 L 19.3125 -21.375 L 19.0625 -23.625 L 9.125 -23.625 L 9.125 -16.375 L 17.34375 -16.375 L 17.34375 -11.8125 L 9.125 -11.8125 L 9.125 -4.609375 L 19.0625 -4.609375 L 19.3125 -6.8125 L 23.40625 -6.8125 L 23.40625 0 L 1.265625 0 L 1.265625 -4.609375 L 3.25 -4.609375 L 3.25 -23.625 L 1.265625 -23.625 Z M 1.265625 -28.140625 "/></g></g></g></g></g><g fill="#000000" fill-opacity="1"><g transform="translate(168.740605, 271.968673)"><g><path d="M 4.546875 -9.5625 L 5.9375 -9.5625 L 9.484375 -1.046875 L 10.203125 -1.046875 L 10.203125 0 L 7.34375 0 L 7.34375 -1.046875 L 8.109375 -1.046875 L 7.296875 -3.140625 L 3.171875 -3.140625 L 2.359375 -1.046875 L 3.125 -1.046875 L 3.125 0 L 0.28125 0 L 0.28125 -1.046875 L 1 -1.046875 Z M 3.546875 -4.078125 L 6.921875 -4.078125 L 5.234375 -8.40625 Z M 3.546875 -4.078125 "/></g></g></g><g fill="#000000" fill-opacity="1"><g transform="translate(182.386596, 271.968673)"><g><path d="M 7.703125 -2.140625 L 7.703125 -8.53125 L 7.015625 -8.53125 L 7.015625 -9.5625 L 9.6875 -9.5625 L 9.6875 -8.53125 L 9 -8.53125 L 9 0 L 7.953125 0 L 2.515625 -7.421875 L 2.515625 -1.046875 L 3.1875 -1.046875 L 3.1875 0 L 0.53125 0 L 0.53125 -1.046875 L 1.203125 -1.046875 L 1.203125 -8.53125 L 0.53125 -8.53125 L 0.53125 -9.5625 L 2.25 -9.5625 Z M 7.703125 -2.140625 "/></g></g></g><g fill="#000000" fill-opacity="1"><g transform="translate(195.794275, 271.968673)"><g><path d="M 5.140625 -8.53125 L 2.515625 -8.53125 L 2.515625 -1.046875 L 5.140625 -1.046875 C 5.910156 -1.046875 6.53125 -1.210938 7 -1.546875 C 7.46875 -1.890625 7.8125 -2.34375 8.03125 -2.90625 C 8.257812 -3.46875 8.375 -4.09375 8.375 -4.78125 C 8.375 -5.476562 8.257812 -6.109375 8.03125 -6.671875 C 7.8125 -7.234375 7.46875 -7.679688 7 -8.015625 C 6.53125 -8.359375 5.910156 -8.53125 5.140625 -8.53125 Z M 0.53125 -9.5625 L 5.296875 -9.5625 C 6.285156 -9.5625 7.101562 -9.34375 7.75 -8.90625 C 8.40625 -8.476562 8.890625 -7.90625 9.203125 -7.1875 C 9.523438 -6.46875 9.6875 -5.664062 9.6875 -4.78125 C 9.6875 -3.90625 9.523438 -3.101562 9.203125 -2.375 C 8.890625 -1.65625 8.40625 -1.078125 7.75 -0.640625 C 7.101562 -0.210938 6.285156 0 5.296875 0 L 0.53125 0 L 0.53125 -1.046875 L 1.203125 -1.046875 L 1.203125 -8.53125 L 0.53125 -8.53125 Z M 0.53125 -9.5625 "/></g></g></g></svg>